<svg xmlns="http://www.w3.org/2000/svg" viewBox="0 0 1600 260" preserveAspectRatio="none">
<g fill="#64748b">
<rect x="0" y="140" width="60" height="120"/>
<rect x="70" y="100" width="40" height="160"/>
<rect x="118" y="160" width="70" height="100"/>
<rect x="196" y="70" width="50" height="190"/>
<rect x="252" y="130" width="35" height="130"/>
<rect x="294" y="110" width="45" height="150"/>
<rect x="345" y="170" width="60" height="90"/>
<rect x="412" y="50" width="55" height="210"/>
<rect x="475" y="120" width="40" height="140"/>
<rect x="522" y="90" width="50" height="170"/>
<rect x="580" y="150" width="65" height="110"/>
<rect x="652" y="30" width="60" height="230"/>
<rect x="720" y="105" width="42" height="155"/>
<rect x="770" y="140" width="55" height="120"/>
<rect x="832" y="65" width="48" height="195"/>
<rect x="888" y="115" width="38" height="145"/>
<rect x="932" y="150" width="70" height="110"/>
<rect x="1010" y="85" width="52" height="175"/>
<rect x="1068" y="125" width="45" height="135"/>
<rect x="1120" y="45" width="58" height="215"/>
<rect x="1185" y="160" width="60" height="100"/>
<rect x="1252" y="100" width="40" height="160"/>
<rect x="1298" y="135" width="55" height="125"/>
<rect x="1360" y="70" width="50" height="190"/>
<rect x="1418" y="150" width="42" height="110"/>
<rect x="1466" y="115" width="60" height="145"/>
<rect x="1532" y="160" width="68" height="100"/>
</g>
<g fill="#94a3b8">
<rect x="80" y="115" width="6" height="8"/><rect x="92" y="115" width="6" height="8"/>
<rect x="80" y="135" width="6" height="8"/><rect x="92" y="135" width="6" height="8"/>
<rect x="205" y="90" width="7" height="9"/><rect x="220" y="90" width="7" height="9"/>
<rect x="205" y="115" width="7" height="9"/><rect x="220" y="115" width="7" height="9"/>
<rect x="205" y="140" width="7" height="9"/><rect x="220" y="140" width="7" height="9"/>
<rect x="421" y="70" width="7" height="9"/><rect x="437" y="70" width="7" height="9"/>
<rect x="421" y="95" width="7" height="9"/><rect x="437" y="95" width="7" height="9"/>
<rect x="421" y="120" width="7" height="9"/><rect x="437" y="120" width="7" height="9"/>
<rect x="421" y="145" width="7" height="9"/><rect x="437" y="145" width="7" height="9"/>
<rect x="662" y="50" width="8" height="10"/><rect x="680" y="50" width="8" height="10"/>
<rect x="662" y="78" width="8" height="10"/><rect x="680" y="78" width="8" height="10"/>
<rect x="662" y="106" width="8" height="10"/><rect x="680" y="106" width="8" height="10"/>
<rect x="662" y="134" width="8" height="10"/><rect x="680" y="134" width="8" height="10"/>
<rect x="842" y="85" width="7" height="9"/><rect x="858" y="85" width="7" height="9"/>
<rect x="842" y="110" width="7" height="9"/><rect x="858" y="110" width="7" height="9"/>
<rect x="1020" y="105" width="7" height="9"/><rect x="1036" y="105" width="7" height="9"/>
<rect x="1020" y="130" width="7" height="9"/><rect x="1036" y="130" width="7" height="9"/>
<rect x="1130" y="65" width="7" height="9"/><rect x="1146" y="65" width="7" height="9"/>
<rect x="1130" y="90" width="7" height="9"/><rect x="1146" y="90" width="7" height="9"/>
<rect x="1130" y="115" width="7" height="9"/><rect x="1146" y="115" width="7" height="9"/>
<rect x="1370" y="90" width="7" height="9"/><rect x="1386" y="90" width="7" height="9"/>
<rect x="1370" y="115" width="7" height="9"/><rect x="1386" y="115" width="7" height="9"/>
<rect x="1476" y="135" width="8" height="10"/><rect x="1494" y="135" width="8" height="10"/>
</g>
</svg>
